<svg width="93.000000" height="40.000000" viewBox="0 0 93 40" fill="none" xmlns="http://www.w3.org/2000/svg" xmlns:xlink="http://www.w3.org/1999/xlink">
	<desc>
			Created with Pixso.
	</desc>
	<defs/>
	<path id="Vector" d="M81.5 37.28C80.48 38.47 78.41 38.29 78.07 36.56C77.9 35.7 78.14 34.66 78.51 33.94C79.34 32.35 80.84 31.05 82.54 30.62C82.54 31.6 82.54 32.89 82.51 33.88C82.48 34.97 82.24 36.41 81.5 37.28ZM65.02 13.88C65.97 13.94 66.72 14.98 66.47 16.74C66.16 18.83 64.43 21.06 62.46 21.56C62.15 20.82 62 19.31 62.17 17.83C62.5 15.12 63.89 13.82 65.02 13.88ZM28.1 23.98C26.63 22.02 26.69 19.65 27.15 17.4C28.59 20.63 32.42 21.19 34.79 20.72C34.48 23.21 33.18 25.38 30.93 25.38C29.67 25.4 28.75 24.85 28.1 23.98ZM33.28 14.86C34 15.6 34.49 16.67 34.71 17.86C34.72 17.86 34.72 17.88 34.72 17.88C34.72 17.87 34.72 17.87 34.71 17.86C33.06 18.1 31.46 17.79 30.29 16.89C29.45 16.22 29.22 15.17 29.58 14.53C30.1 13.62 31.65 13.22 33.28 14.86ZM10.71 2.72C11.73 1.52 13.81 1.71 14.13 3.45C14.29 4.29 14.07 5.33 13.7 6.05C12.87 7.63 11.38 8.94 9.67 9.38C9.67 8.39 9.66 7.12 9.7 6.13C9.73 5.03 9.97 3.58 10.71 2.72ZM86.32 28.39C86.33 23.24 86.32 18.09 86.32 12.93C86.32 11.66 82.66 11.59 82.54 12.87C82.54 13.39 82.54 13.93 82.52 14.44C82.47 17.27 81.12 22.56 78.88 24.48C78.27 25 77.73 25.03 77.34 24.75C77 24.49 76.91 23.86 76.91 23.31L76.91 22.6C76.91 19.42 76.93 16.13 76.91 12.95C76.91 11.68 73.25 11.59 73.13 12.87C73.13 15.84 73.13 18.71 73.15 21.64C70.74 25.49 65.15 27.29 62.84 22.73C64.28 23.28 65.8 23.01 66.84 22.47C68.63 21.52 69.99 19.95 70.26 17.46C70.51 10.18 60.89 9.19 58.74 16.61C58.38 17.83 58.19 19.15 58.24 20.44C58.28 21.67 58.53 22.81 58.96 23.81C58.18 24.58 57.27 25.12 56.37 25.09C55.18 25.04 55.3 23.58 55.3 22.73L55.3 17.18C55.3 16.52 55.3 15.85 55.24 15.2C55.05 13.26 53.57 11.72 51.5 11.59C48.55 11.54 46.48 14.28 45.45 17.29C45.44 15.61 45.45 14.62 45.45 12.93C45.44 11.68 42.05 11.59 41.66 12.92C41.17 14.61 39.57 15.92 38.08 16.71C37.62 15.6 37.04 14.58 36.24 13.7C32.95 10.14 28.2 10.79 25.42 13.73C23.21 16.07 22.54 20.29 23.73 23.25C22.85 24.29 21.66 25.13 20.59 25.09C20.06 25.06 19.76 24.75 19.63 24.26C19.49 23.78 19.52 23.22 19.52 22.73C19.52 20.88 19.51 19.03 19.52 17.18C19.52 16.52 19.52 15.85 19.46 15.2C19.27 13.26 18.13 11.71 15.97 11.57C12.25 11.41 10.75 15.01 9.66 17.97L9.66 11.65C10.44 11.51 11.2 11.32 11.95 11.1C20.14 8.75 18.56 0.15 12.46 0C8.34 -0.09 5.9 2.62 5.93 6.73L5.93 9.4C4.45 9.17 3.33 7.25 2.71 6.01C2.62 5.81 2.53 5.62 2.45 5.43C2.37 5.24 2.16 5.13 1.97 5.19C1.81 5.24 1.65 5.3 1.48 5.36C0.89 5.62 0.4 6.08 0.17 6.69C-0.26 7.77 0.17 8.92 0.92 9.74C2.16 11.04 4.15 11.51 5.9 11.6C5.88 16.74 5.9 21.86 5.9 27C5.96 27.72 6.95 27.91 7.53 27.93C8.13 27.94 9.45 27.75 9.47 26.92L9.51 26.29C9.76 24.01 11.95 14.89 14.72 14.87C15.41 14.87 15.75 15.32 15.75 15.98L15.75 24.11C15.75 26.63 17.17 28.31 19.74 28.31C21.74 28.33 23.55 26.88 24.63 25.07C24.78 25.26 24.9 25.47 25.06 25.65C26.47 27.29 28.54 28.34 30.91 28.36C36.08 28.28 38.73 23.84 38.54 19.48C39.74 18.81 40.82 17.95 41.65 16.89L41.65 27C41.71 27.72 42.74 27.91 43.32 27.93C43.93 27.94 45.25 27.75 45.25 26.92L45.31 26.29L45.48 24.6C45.75 22.24 47.51 14.89 50.52 14.87C51.19 14.87 51.53 15.32 51.53 15.98L51.53 24.11C51.53 26.63 52.95 28.31 55.54 28.31C57.33 28.33 58.96 27.16 60.06 25.62C61.51 27.41 63.73 28.46 66.4 28.46C69.52 28.46 71.79 27.08 73.3 24.86C73.64 26.77 74.66 28.28 77.16 28.31C79.75 28.33 81.72 24.72 82.54 22.54L82.54 28.36C81.77 28.49 81.01 28.68 80.26 28.91C72.07 31.24 73.64 39.86 79.74 39.99C83.87 40.1 86.3 37.39 86.29 33.27C86.29 32.58 86.27 31.27 86.29 30.59C87.75 30.81 88.88 32.75 89.48 34C89.59 34.19 89.68 34.38 89.75 34.57C89.84 34.77 90.03 34.86 90.24 34.81C90.4 34.77 90.57 34.71 90.71 34.63C91.32 34.37 91.81 33.92 92.05 33.3C92.48 32.22 92.05 31.08 91.28 30.27C90.05 28.95 88.05 28.49 86.32 28.39Z" fill="#FFA638" fill-opacity="1.000000" fill-rule="evenodd"/>
</svg>
