<svg width="1409.000000" height="611.000000" viewBox="0 0 1409 611" fill="none" xmlns="http://www.w3.org/2000/svg" xmlns:xlink="http://www.w3.org/1999/xlink">
	<desc>
			Created with Pixso.
	</desc>
	<defs/>
	<g opacity="0.900000">
		<path id="Vector" d="M1245.02 569.57C1229.41 587.66 1197.74 584.95 1192.53 558.5C1190.05 545.38 1193.67 529.55 1199.31 518.47C1211.99 494.28 1234.84 474.39 1260.86 467.83C1260.86 482.75 1260.86 502.42 1260.41 517.57C1259.94 534.3 1256.32 556.23 1245.02 569.57ZM993.23 212.11C1007.71 213.01 1019.25 228.84 1015.41 255.75C1010.66 287.63 984.18 321.77 954.1 329.45C949.34 318.15 947.08 295.09 949.79 272.48C954.77 231.1 976.04 211.2 993.23 212.11ZM429.26 366.31C406.86 336.46 407.76 300.29 414.78 265.92C436.72 315.21 495.32 323.8 531.51 316.57C526.76 354.55 506.85 387.79 472.47 387.79C453.24 388.01 439.21 379.65 429.26 366.31ZM508.44 227.03C519.47 238.29 526.92 254.71 530.33 272.93C530.35 272.93 530.38 273.16 530.38 273.16C530.37 273.08 530.34 273.01 530.33 272.93C505.01 276.54 480.6 271.79 462.74 258.01C449.85 247.83 446.45 231.78 451.88 222.06C459.79 208.04 483.55 201.93 508.44 227.03ZM163.67 41.63C179.28 23.32 210.95 26.25 215.93 52.71C218.41 65.6 215.02 81.42 209.37 92.5C196.7 116.69 173.85 136.59 147.83 143.37C147.83 128.23 147.6 108.78 148.29 93.63C148.74 76.9 152.36 54.74 163.67 41.63ZM1318.55 433.69C1318.77 355.01 1318.55 276.32 1318.55 197.64C1318.55 178.2 1262.67 177.06 1260.86 196.74C1260.86 204.65 1260.86 212.79 1260.63 220.7C1259.73 263.89 1239.14 344.6 1204.98 374C1195.71 381.91 1187.32 382.36 1181.46 378.07C1176.25 374.22 1174.89 364.5 1174.89 356.14L1174.89 345.28C1174.89 296.67 1175.12 246.48 1174.89 197.86C1174.89 178.42 1119.01 177.06 1117.19 196.74C1117.19 241.95 1117.19 285.82 1117.43 330.59C1080.56 389.37 995.27 416.96 959.98 347.32C981.92 355.68 1005.22 351.61 1021.06 343.25C1048.43 328.78 1069.25 304.81 1073.31 266.83C1077.16 155.58 930.12 140.44 897.31 253.71C891.88 272.48 888.94 292.6 889.62 312.27C890.3 331.04 894.14 348.45 900.71 363.82C888.71 375.58 874.92 383.72 861.12 383.27C843.02 382.59 844.83 360.21 844.83 347.32L844.83 262.53C844.83 252.36 844.83 242.18 843.92 232.23C840.99 202.61 818.36 179.1 786.69 177.06C741.67 176.39 710 218.21 694.39 264.11C694.17 238.56 694.39 223.41 694.39 197.64C694.17 178.42 642.36 177.06 636.48 197.41C629.01 223.19 604.58 243.31 581.73 255.29C574.72 238.34 565.9 222.74 553.68 209.4C503.46 154.9 430.84 164.86 388.31 209.85C354.6 245.57 344.43 310.01 362.52 355.23C349.17 371.06 330.85 383.95 314.56 383.27C306.42 382.82 301.89 378.07 299.85 370.61C297.82 363.37 298.27 354.78 298.27 347.32C298.27 319.05 298.04 290.79 298.27 262.53C298.27 252.36 298.27 242.18 297.37 232.23C294.43 202.61 277.01 178.87 243.98 176.84C187.2 174.35 164.35 229.29 147.6 274.51L147.6 177.97C159.6 175.93 171.14 172.99 182.67 169.6C307.77 133.65 283.57 2.29 190.37 0.03C127.47 -1.33 90.14 40.05 90.6 102.9L90.6 143.6C67.98 140.21 51.01 110.82 41.51 91.82C40.15 88.88 38.79 85.94 37.44 83C36.31 80.06 33.14 78.49 30.19 79.39C27.71 80.06 25.22 80.97 22.73 81.87C13.69 85.95 6.21 92.95 2.6 102.23C-3.96 118.73 2.6 136.37 14.13 148.8C33.14 168.7 63.46 175.93 90.14 177.29C89.92 255.75 90.14 333.98 90.14 412.43C91.05 423.51 106.21 426.45 115.03 426.68C124.31 426.91 144.44 423.96 144.67 411.31L145.35 401.58C149.19 366.76 182.67 227.48 224.97 227.26C235.38 227.26 240.59 234.04 240.59 244.22L240.59 368.35C240.59 406.78 262.3 432.56 301.67 432.56C332.21 432.78 359.8 410.62 376.32 383.04C378.58 385.98 380.39 389.15 382.88 391.86C404.37 416.96 436.04 433.01 472.24 433.24C551.19 432.1 591.68 364.28 588.75 297.57C607.07 287.4 623.58 274.28 636.25 258.01L636.25 412.43C637.15 423.51 652.99 426.45 661.82 426.68C671.09 426.91 691.23 423.96 691.23 411.31L692.13 401.58L694.84 375.81C698.92 339.86 725.84 227.48 771.76 227.26C781.93 227.26 787.15 234.04 787.15 244.22L787.15 368.35C787.15 406.78 808.86 432.56 848.45 432.56C875.82 432.78 900.71 414.92 917.45 391.41C939.61 418.77 973.55 434.82 1014.27 434.82C1062.01 434.82 1096.62 413.79 1119.68 379.88C1124.9 409.04 1140.51 432.1 1178.74 432.56C1218.31 432.78 1248.42 377.62 1260.86 344.38L1260.86 433.24C1249.09 435.27 1237.56 438.21 1226.02 441.6C1100.92 477.33 1124.9 608.91 1218.1 610.95C1281.22 612.53 1318.32 571.16 1318.09 508.3C1318.09 497.68 1317.87 477.78 1318.09 467.38C1340.49 470.77 1357.68 500.39 1366.96 519.38C1368.54 522.32 1369.9 525.26 1371.03 528.2C1372.39 531.14 1375.32 532.49 1378.49 531.81C1380.98 531.14 1383.47 530.23 1385.73 529.1C1395.01 525.03 1402.48 518.25 1406.09 508.75C1412.66 492.25 1406.09 474.84 1394.33 462.4C1375.56 442.28 1345.01 435.27 1318.55 433.69Z" fill="#FFA638" fill-opacity="1.000000" fill-rule="evenodd"/>
	</g>
</svg>
